#Comment line ignore any data following # character 
#Hierarchical Translation and Rotation (.htr) file 
[Header]	
#Header keywords are followed by a single value 
FileType HTR		#Single word string
DataType HTRS		#Translation followed by rotation and scale data
FileVersion 1		#integer
NumSegments 84		#integer
NumFrames 2		#integer
DataFrameRate 30		#integer, data frame rate in this file
EulerRotationOrder ZYX
CalibrationUnits mm
RotationUnits Degrees
GlobalAxisofGravity Y
BoneLengthAxis Y
ScaleFactor 1.00
[SegmentNames&Hierarchy]
#CHILD	PARENT
MASTER GLOBAL
root MASTER
chest root
L_mid_tent01 root
R_mid_tent01 root
spine01 root
Bip01_Neck chest
L_humerus chest
R_humerus chest
weapon_bone chest
Bip01_Head Bip01_Neck
eye_left_bone Bip01_Head
eye_right_bone Bip01_Head
L_forearm L_humerus
L_front_hand L_forearm
L_weapon_bone L_forearm
L_front_hand01_01 L_front_hand
L_front_hand02_01 L_front_hand
L_front_hand03_01 L_front_hand
L_front_hand01_02 L_front_hand01_01
L_front_hand02_02 L_front_hand02_01
L_front_hand03_02 L_front_hand03_01
R_forearm R_humerus
R_front_hand R_forearm
R_weapon_bone R_forearm
R_front_hand01_01 R_front_hand
R_front_hand02_01 R_front_hand
R_front_hand03_01 R_front_hand
R_front_hand01_02 R_front_hand01_01
R_front_hand02_02 R_front_hand02_01
R_front_hand03_02 R_front_hand03_01
null_rope01_connect L_mid_tent01
Rope1_Seg01 null_rope01_connect
Rope1_Seg02 Rope1_Seg01
Rope1_Seg03 Rope1_Seg02
Rope1_Seg04 Rope1_Seg03
Rope1_Seg05 Rope1_Seg04
Rope1_Seg06 Rope1_Seg05
Rope1_Seg07 Rope1_Seg06
Rope1_Seg09 Rope1_Seg07
L_mid_hand01 Rope1_Seg09
L_mid_hand02 Rope1_Seg09
L_mid_hand03 Rope1_Seg09
null_rope02_connect R_mid_tent01
Rope2_Seg01 null_rope02_connect
Rope2_Seg02 Rope2_Seg01
Rope2_Seg03 Rope2_Seg02
Rope2_Seg04 Rope2_Seg03
Rope2_Seg05 Rope2_Seg04
Rope2_Seg06 Rope2_Seg05
Rope2_Seg07 Rope2_Seg06
Rope2_Seg09 Rope2_Seg07
R_mid_hand01 Rope2_Seg09
R_mid_hand02 Rope2_Seg09
R_mid_hand03 Rope2_Seg09
spine02 spine01
spine03 spine02
pelvis spine03
null_rope03_connect pelvis
null_rope04_connect pelvis
Rope3_Seg01 null_rope03_connect
Rope3_Seg02 Rope3_Seg01
Rope3_Seg03 Rope3_Seg02
Rope3_Seg04 Rope3_Seg03
Rope3_Seg05 Rope3_Seg04
Rope3_Seg06 Rope3_Seg05
Rope3_Seg07 Rope3_Seg06
Rope3_Seg08 Rope3_Seg07
Rope3_Seg09 Rope3_Seg08
R_rear_hand01 Rope3_Seg09
R_rear_hand02 Rope3_Seg09
R_rear_hand03 Rope3_Seg09
Rope4_Seg01 null_rope04_connect
Rope4_Seg02 Rope4_Seg01
Rope4_Seg03 Rope4_Seg02
Rope4_Seg04 Rope4_Seg03
Rope4_Seg05 Rope4_Seg04
Rope4_Seg06 Rope4_Seg05
Rope4_Seg07 Rope4_Seg06
Rope4_Seg08 Rope4_Seg07
Rope4_Seg09 Rope4_Seg08
L_rear_hand01 Rope4_Seg09
L_rear_hand02 Rope4_Seg09
L_rear_hand03 Rope4_Seg09
[BasePosition]
#SegmentName Tx, Ty, Tz, Rx, Ry, Rz, BoneLength
MASTER 0.000000 0.000000 0.000000 -90.000000 0.000000 0.000000 10.000000 
root 0.000000 0.000000 0.000000 0.000000 0.000000 0.000000 10.000000 
chest 0.000000 0.000000 0.000000 0.000000 0.000000 0.000000 10.000000 
L_mid_tent01 0.000000 0.000000 0.000000 0.000000 0.000000 0.000000 10.000000 
R_mid_tent01 0.000000 0.000000 0.000000 0.000000 0.000000 0.000000 10.000000 
spine01 0.000000 0.000000 0.000000 0.000000 0.000000 0.000000 10.000000 
Bip01_Neck 0.000000 0.000000 0.000000 0.000000 0.000000 0.000000 10.000000 
L_humerus 0.000000 0.000000 0.000000 0.000000 0.000000 0.000000 10.000000 
R_humerus 0.000000 0.000000 0.000000 0.000000 0.000000 0.000000 10.000000 
weapon_bone 0.000000 0.000000 0.000000 0.000000 0.000000 0.000000 10.000000 
Bip01_Head 0.000000 0.000000 0.000000 0.000000 0.000000 0.000000 10.000000 
eye_left_bone 0.000000 0.000000 0.000000 0.000000 0.000000 0.000000 10.000000 
eye_right_bone 0.000000 0.000000 0.000000 0.000000 0.000000 0.000000 10.000000 
L_forearm 0.000000 0.000000 0.000000 0.000000 0.000000 0.000000 10.000000 
L_front_hand 0.000000 0.000000 0.000000 0.000000 0.000000 0.000000 10.000000 
L_weapon_bone 0.000000 0.000000 0.000000 0.000000 0.000000 0.000000 10.000000 
L_front_hand01_01 0.000000 0.000000 0.000000 0.000000 0.000000 0.000000 10.000000 
L_front_hand02_01 0.000000 0.000000 0.000000 0.000000 0.000000 0.000000 10.000000 
L_front_hand03_01 0.000000 0.000000 0.000000 0.000000 0.000000 0.000000 10.000000 
L_front_hand01_02 0.000000 0.000000 0.000000 0.000000 0.000000 0.000000 10.000000 
L_front_hand02_02 0.000000 0.000000 0.000000 0.000000 0.000000 0.000000 10.000000 
L_front_hand03_02 0.000000 0.000000 0.000000 0.000000 0.000000 0.000000 10.000000 
R_forearm 0.000000 0.000000 0.000000 0.000000 0.000000 0.000000 10.000000 
R_front_hand 0.000000 0.000000 0.000000 0.000000 0.000000 0.000000 10.000000 
R_weapon_bone 0.000000 0.000000 0.000000 0.000000 0.000000 0.000000 10.000000 
R_front_hand01_01 0.000000 0.000000 0.000000 0.000000 0.000000 0.000000 10.000000 
R_front_hand02_01 0.000000 0.000000 0.000000 0.000000 0.000000 0.000000 10.000000 
R_front_hand03_01 0.000000 0.000000 0.000000 0.000000 0.000000 0.000000 10.000000 
R_front_hand01_02 0.000000 0.000000 0.000000 0.000000 0.000000 0.000000 10.000000 
R_front_hand02_02 0.000000 0.000000 0.000000 0.000000 0.000000 0.000000 10.000000 
R_front_hand03_02 0.000000 0.000000 0.000000 0.000000 0.000000 0.000000 10.000000 
null_rope01_connect 0.000000 0.000000 0.000000 0.000000 0.000000 0.000000 10.000000 
Rope1_Seg01 0.000000 0.000000 0.000000 0.000000 0.000000 0.000000 10.000000 
Rope1_Seg02 0.000000 0.000000 0.000000 0.000000 0.000000 0.000000 10.000000 
Rope1_Seg03 0.000000 0.000000 0.000000 0.000000 0.000000 0.000000 10.000000 
Rope1_Seg04 0.000000 0.000000 0.000000 0.000000 0.000000 0.000000 10.000000 
Rope1_Seg05 0.000000 0.000000 0.000000 0.000000 0.000000 0.000000 10.000000 
Rope1_Seg06 0.000000 0.000000 0.000000 0.000000 0.000000 0.000000 10.000000 
Rope1_Seg07 0.000000 0.000000 0.000000 0.000000 0.000000 0.000000 10.000000 
Rope1_Seg09 0.000000 0.000000 0.000000 0.000000 0.000000 0.000000 10.000000 
L_mid_hand01 0.000000 0.000000 0.000000 0.000000 0.000000 0.000000 10.000000 
L_mid_hand02 0.000000 0.000000 0.000000 0.000000 0.000000 0.000000 10.000000 
L_mid_hand03 0.000000 0.000000 0.000000 0.000000 0.000000 0.000000 10.000000 
null_rope02_connect 0.000000 0.000000 0.000000 0.000000 0.000000 0.000000 10.000000 
Rope2_Seg01 0.000000 0.000000 0.000000 0.000000 0.000000 0.000000 10.000000 
Rope2_Seg02 0.000000 0.000000 0.000000 0.000000 0.000000 0.000000 10.000000 
Rope2_Seg03 0.000000 0.000000 0.000000 0.000000 0.000000 0.000000 10.000000 
Rope2_Seg04 0.000000 0.000000 0.000000 0.000000 0.000000 0.000000 10.000000 
Rope2_Seg05 0.000000 0.000000 0.000000 0.000000 0.000000 0.000000 10.000000 
Rope2_Seg06 0.000000 0.000000 0.000000 0.000000 0.000000 0.000000 10.000000 
Rope2_Seg07 0.000000 0.000000 0.000000 0.000000 0.000000 0.000000 10.000000 
Rope2_Seg09 0.000000 0.000000 0.000000 0.000000 0.000000 0.000000 10.000000 
R_mid_hand01 0.000000 0.000000 0.000000 0.000000 0.000000 0.000000 10.000000 
R_mid_hand02 0.000000 0.000000 0.000000 0.000000 0.000000 0.000000 10.000000 
R_mid_hand03 0.000000 0.000000 0.000000 0.000000 0.000000 0.000000 10.000000 
spine02 0.000000 0.000000 0.000000 0.000000 0.000000 0.000000 10.000000 
spine03 0.000000 0.000000 0.000000 0.000000 0.000000 0.000000 10.000000 
pelvis 0.000000 0.000000 0.000000 0.000000 0.000000 0.000000 10.000000 
null_rope03_connect 0.000000 0.000000 0.000000 0.000000 0.000000 0.000000 10.000000 
null_rope04_connect 0.000000 0.000000 0.000000 0.000000 0.000000 0.000000 10.000000 
Rope3_Seg01 0.000000 0.000000 0.000000 0.000000 0.000000 0.000000 10.000000 
Rope3_Seg02 0.000000 0.000000 0.000000 0.000000 0.000000 0.000000 10.000000 
Rope3_Seg03 0.000000 0.000000 0.000000 0.000000 0.000000 0.000000 10.000000 
Rope3_Seg04 0.000000 0.000000 0.000000 0.000000 0.000000 0.000000 10.000000 
Rope3_Seg05 0.000000 0.000000 0.000000 0.000000 0.000000 0.000000 10.000000 
Rope3_Seg06 0.000000 0.000000 0.000000 0.000000 0.000000 0.000000 10.000000 
Rope3_Seg07 0.000000 0.000000 0.000000 0.000000 0.000000 0.000000 10.000000 
Rope3_Seg08 0.000000 0.000000 0.000000 0.000000 0.000000 0.000000 10.000000 
Rope3_Seg09 0.000000 0.000000 0.000000 0.000000 0.000000 0.000000 10.000000 
R_rear_hand01 0.000000 0.000000 0.000000 0.000000 0.000000 0.000000 10.000000 
R_rear_hand02 0.000000 0.000000 0.000000 0.000000 0.000000 0.000000 10.000000 
R_rear_hand03 0.000000 0.000000 0.000000 0.000000 0.000000 0.000000 10.000000 
Rope4_Seg01 0.000000 0.000000 0.000000 0.000000 0.000000 0.000000 10.000000 
Rope4_Seg02 0.000000 0.000000 0.000000 0.000000 0.000000 0.000000 10.000000 
Rope4_Seg03 0.000000 0.000000 0.000000 0.000000 0.000000 0.000000 10.000000 
Rope4_Seg04 0.000000 0.000000 0.000000 0.000000 0.000000 0.000000 10.000000 
Rope4_Seg05 0.000000 0.000000 0.000000 0.000000 0.000000 0.000000 10.000000 
Rope4_Seg06 0.000000 0.000000 0.000000 0.000000 0.000000 0.000000 10.000000 
Rope4_Seg07 0.000000 0.000000 0.000000 0.000000 0.000000 0.000000 10.000000 
Rope4_Seg08 0.000000 0.000000 0.000000 0.000000 0.000000 0.000000 10.000000 
Rope4_Seg09 0.000000 0.000000 0.000000 0.000000 0.000000 0.000000 10.000000 
L_rear_hand01 0.000000 0.000000 0.000000 0.000000 0.000000 0.000000 10.000000 
L_rear_hand02 0.000000 0.000000 0.000000 0.000000 0.000000 0.000000 10.000000 
L_rear_hand03 0.000000 0.000000 0.000000 0.000000 0.000000 0.000000 10.000000 
#Beginning of Data. Separated by tabs
#Fr	Tx	Ty	Tz	Rx	Ry	Rz	SF
[MASTER]
4 0.000000 0.000000 0.000000 0.001660 0.001660 0.001660 0.000000
5 0.000000 0.000000 0.000000 0.001660 0.001660 0.001660 0.000000
[root]
4 -31.049669 -65.390022 1552.973755 -108.637428 23.255816 -90.513412 1554.659912
5 -31.020481 -66.532013 1549.487061 -108.619453 23.167845 -90.481949 1551.224976
[chest]
4 -86.836624 -33.005978 -30.127254 -0.595122 -8.710540 179.825409 97.660866
5 -86.836624 -33.005978 -30.127254 -0.093543 -8.630511 179.618546 97.660866
[L_mid_tent01]
4 27.299532 22.177580 -249.918289 -9.347533 8.081734 67.717583 252.381180
5 27.299530 22.177580 -249.918289 -9.326958 8.862926 67.694412 252.381180
[R_mid_tent01]
4 23.228794 24.509907 226.238495 -176.137405 -10.558680 66.008675 228.744751
5 23.228794 24.509907 226.238495 -176.132828 -10.958318 65.981186 228.744751
[spine01]
4 -0.361383 -0.195265 0.000000 -0.000001 -0.000007 22.052340 0.410763
5 -0.361383 -0.195265 0.000000 -0.000001 -0.000007 22.052340 0.410763
[Bip01_Neck]
4 165.484543 71.581718 0.000119 175.896118 1.177290 24.871183 180.302734
5 165.484543 71.581718 0.000119 175.896118 1.177290 24.871180 180.302734
[L_humerus]
4 -13.983130 -135.272980 -120.471481 -168.517593 36.033752 -113.483025 181.680161
5 -13.983130 -135.272980 -120.471481 -168.517593 36.033752 -113.483025 181.680161
[R_humerus]
4 -13.983309 -135.273102 125.287651 -177.139832 -28.230404 -117.681564 184.909012
5 -13.983309 -135.273102 125.287651 -177.202942 -28.639820 -117.769302 184.909012
[weapon_bone]
4 235.964890 -300.705902 0.000000 0.000000 -89.951546 -128.212341 382.234833
5 235.964890 -300.705902 0.000000 0.000000 -89.951546 -128.212341 382.234833
[Bip01_Head]
4 189.519958 179.130234 22.124866 -20.663836 5.336486 13.433776 261.715424
5 189.519958 179.130234 22.124868 -20.766979 5.354814 13.488807 261.715424
[eye_left_bone]
4 -24.626970 125.451866 -64.772606 0.000000 -90.000000 -99.840431 143.318359
5 -24.626970 125.451866 -64.772606 0.000000 -90.000000 -99.840431 143.318359
[eye_right_bone]
4 -24.626970 125.451866 64.327362 0.000000 -89.965736 80.156380 143.117676
5 -24.626970 125.451866 64.327362 0.000000 -89.972023 80.156387 143.117676
[L_forearm]
4 322.776093 0.000000 -0.000119 0.000017 0.002347 -89.149834 322.776093
5 322.776093 0.000000 -0.000119 0.000017 0.002347 -89.149834 322.776093
[L_front_hand]
4 241.149185 -0.042021 -3.300071 15.487574 -2.241966 -0.018683 241.171753
5 241.149185 -0.042021 -3.300071 14.295313 -2.243877 -0.020507 241.171753
[L_weapon_bone]
4 156.183838 0.000000 0.000000 0.000014 0.000007 0.000001 156.183838
5 156.183838 0.000000 0.000000 0.000014 0.000007 0.000001 156.183838
[L_front_hand01_01]
4 86.095154 20.947098 -0.655860 -0.366594 -0.477154 75.385574 88.609184
5 86.095154 20.947098 -0.655860 -0.366594 -0.477154 75.385574 88.609184
[L_front_hand02_01]
4 86.935165 -11.437475 24.513514 154.399796 -59.883835 -61.369587 91.046425
5 86.935165 -11.437475 24.513514 154.399796 -59.883820 -61.369564 91.046425
[L_front_hand03_01]
4 86.637497 -14.123976 -20.424902 -153.913849 58.118122 -62.702866 90.126129
5 86.637497 -14.123976 -20.424902 -153.913849 58.118130 -62.702866 90.126129
[L_front_hand01_02]
4 71.020905 -0.000179 0.000030 0.000334 -0.002323 -106.379684 71.020905
5 71.020905 -0.000179 0.000030 0.000334 -0.002323 -106.379684 71.020905
[L_front_hand02_02]
4 71.020927 -0.000119 0.000060 0.000334 -0.002323 -106.379684 71.020927
5 71.020927 -0.000119 0.000060 0.000334 -0.002323 -106.379684 71.020927
[L_front_hand03_02]
4 71.020905 -0.000060 0.000060 0.000334 -0.002323 -106.379684 71.020905
5 71.020905 -0.000060 0.000060 0.000334 -0.002323 -106.379684 71.020905
[R_forearm]
4 322.776428 -0.000060 0.000030 0.213197 0.007525 -93.425262 322.776428
5 322.776428 -0.000060 0.000030 0.213197 0.007525 -93.425262 322.776428
[R_front_hand]
4 238.847015 -0.006795 2.210259 -0.270529 1.703932 2.322530 238.857239
5 238.847015 -0.006795 2.210259 -0.270529 1.703932 2.322530 238.857239
[R_weapon_bone]
4 155.664093 0.002503 -0.000030 0.003487 0.001180 -90.988930 155.664078
5 155.664093 0.002503 -0.000030 0.003487 0.001180 -90.988930 155.664078
[R_front_hand01_01]
4 87.624611 14.231146 22.918642 -154.633484 -59.950607 61.746033 91.683487
5 87.624611 14.231146 22.918642 -154.633499 -59.950619 61.746044 91.683487
[R_front_hand02_01]
4 89.356956 14.367283 -19.491137 154.602661 58.302849 63.744389 92.579636
5 89.356956 14.367283 -19.491137 154.602661 58.302849 63.744389 92.579636
[R_front_hand03_01]
4 87.286232 -22.307278 -0.143439 0.162155 -0.423168 -75.767921 90.091743
5 87.286232 -22.307278 -0.143439 0.162155 -0.423168 -75.767921 90.091743
[R_front_hand01_02]
4 71.020905 0.000060 0.000119 0.002323 -0.000334 106.381714 71.020905
5 71.020905 0.000060 0.000119 0.002323 -0.000334 106.381714 71.020905
[R_front_hand02_02]
4 71.020844 -0.000030 -0.000119 0.002323 -0.000334 106.381714 71.020836
5 71.020844 -0.000030 -0.000119 0.002323 -0.000334 106.381714 71.020836
[R_front_hand03_02]
4 71.020905 0.000000 0.000030 0.002323 -0.000334 106.381714 71.020905
5 71.020905 0.000000 0.000030 0.002323 -0.000334 106.381714 71.020905
[null_rope01_connect]
4 328.732483 0.000000 -0.000238 146.267868 -60.168530 -148.943268 328.732483
5 328.732483 0.000000 -0.000238 147.126114 -59.514965 -149.720383 328.732483
[Rope1_Seg01]
4 0.000000 0.000000 0.000000 152.304764 53.014618 -173.592758 0.000000
5 0.000000 0.000000 0.000000 153.100250 53.376431 -173.065750 0.000000
[Rope1_Seg02]
4 139.999863 -0.000179 0.000000 8.957835 -1.531738 -10.994879 139.999863
5 139.999863 -0.000179 0.000000 9.404284 -2.130396 -10.959960 139.999863
[Rope1_Seg03]
4 139.999924 0.000060 -0.000060 17.171574 -4.841329 -13.829138 139.999924
5 139.999924 0.000060 -0.000060 17.304308 -5.729594 -13.589097 139.999924
[Rope1_Seg04]
4 139.999924 -0.000060 -0.000119 27.561689 -13.144066 -15.371054 139.999924
5 139.999924 -0.000060 -0.000119 26.011763 -14.171775 -14.548800 139.999924
[Rope1_Seg05]
4 139.999832 0.000119 -0.000060 0.625415 3.802468 -5.081150 139.999832
5 139.999832 0.000119 -0.000060 0.289869 4.139654 -5.181069 139.999832
[Rope1_Seg06]
4 139.999954 0.000119 -0.000060 -13.436048 10.576759 -2.332910 139.999954
5 139.999954 0.000119 -0.000060 -13.204682 11.223377 -2.692180 139.999954
[Rope1_Seg07]
4 139.999985 0.000060 0.000000 -4.539483 3.335557 -0.942660 139.999985
5 139.999985 0.000060 0.000000 -4.702894 3.618742 -1.013649 139.999985
[Rope1_Seg09]
4 121.602913 0.000119 -0.000089 -89.793175 -1.359789 0.847147 121.602913
5 121.602913 0.000119 -0.000089 -89.793175 -1.359789 0.847147 121.602913
[L_mid_hand01]
4 103.859421 1.038730 8.195221 106.855484 -31.239275 -9.461397 104.187431
5 103.859421 1.038730 8.195221 106.855484 -31.239275 -9.461397 104.187431
[L_mid_hand02]
4 105.572853 -4.139662 -10.864139 -142.331345 25.752670 -28.774628 106.211075
5 105.572853 -4.139662 -10.864139 -142.331345 25.752670 -28.774628 106.211075
[L_mid_hand03]
4 104.641464 17.579376 -3.913581 -16.122810 9.734291 34.223598 106.179977
5 104.641464 17.579376 -3.913581 -16.122810 9.734291 34.223598 106.179977
[null_rope02_connect]
4 328.732849 0.000179 -0.000119 -25.370434 82.770691 154.392365 328.732849
5 328.732849 0.000179 -0.000119 -26.922455 83.126740 152.773834 328.732849
[Rope2_Seg01]
4 0.000076 0.000110 0.000153 51.039326 80.520744 165.376587 0.000203
5 0.000076 0.000110 0.000153 52.626225 80.656075 167.016617 0.000203
[Rope2_Seg02]
4 139.999741 -0.000060 -0.000119 -1.830106 11.151653 4.361627 139.999756
5 139.999741 -0.000060 -0.000119 -1.878248 11.168683 4.371660 139.999756
[Rope2_Seg03]
4 140.000107 0.000030 0.000000 -5.427152 16.648495 7.691268 140.000107
5 140.000107 0.000030 0.000000 -5.318718 16.141733 7.464705 140.000107
[Rope2_Seg04]
4 139.999802 0.000000 -0.000060 -8.567095 14.188219 8.143994 139.999802
5 139.999802 0.000000 -0.000060 -8.298893 13.847971 7.917095 139.999802
[Rope2_Seg05]
4 139.999985 -0.000060 0.000119 0.934959 0.126579 -1.367345 139.999985
5 139.999985 -0.000060 0.000119 0.347632 0.706527 -0.841938 139.999985
[Rope2_Seg06]
4 139.999893 -0.000030 -0.000119 -0.629020 1.160297 0.237649 139.999893
5 139.999893 -0.000030 -0.000119 -0.834302 1.357390 0.412204 139.999893
[Rope2_Seg07]
4 139.999893 0.000060 -0.000060 -0.697427 0.978303 0.379021 139.999893
5 139.999893 0.000060 -0.000060 -0.858874 1.133141 0.507562 139.999893
[Rope2_Seg09]
4 121.338966 0.000089 -0.000060 33.793236 -1.359788 -0.847141 121.338966
5 121.338966 0.000089 -0.000060 33.793236 -1.359788 -0.847141 121.338966
[R_mid_hand01]
4 104.680779 11.144459 -10.335981 -41.523792 25.424656 28.595957 105.778534
5 104.680779 11.144459 -10.335981 -41.523792 25.424656 28.595957 105.778534
[R_mid_hand02]
4 104.070427 2.443552 8.231699 72.847389 -32.746803 10.013901 104.424065
5 104.070427 2.443552 8.231699 72.847389 -32.746803 10.013901 104.424065
[R_mid_hand03]
4 106.028137 -11.221827 -5.996406 -167.901306 10.259192 -37.009720 106.788818
5 106.028137 -11.221827 -5.996406 -167.901306 10.259192 -37.009720 106.788818
[spine02]
4 129.756927 0.001550 0.000119 -0.245322 -4.052060 -4.355547 129.756927
5 129.756927 0.001550 0.000119 -0.245322 -4.052059 -4.355546 129.756927
[spine03]
4 78.613846 0.087372 -4.898873 0.207412 -2.089717 -0.432471 78.766380
5 78.613846 0.087372 -4.898873 0.207412 -2.089717 -0.432471 78.766380
[pelvis]
4 169.435242 0.051022 0.000000 -0.010007 -0.191417 -1.897554 169.435257
5 169.435242 0.051022 0.000000 -0.010007 -0.191417 -1.897554 169.435257
[null_rope03_connect]
4 -1.257226 -2.466202 137.391083 137.757034 -72.545128 -87.420670 137.418976
5 -1.257226 -2.466202 137.391083 137.751434 -72.540855 -87.342438 137.418976
[null_rope04_connect]
4 -1.259640 -2.480268 -137.844437 137.757034 -72.545128 -87.420670 137.872513
5 -1.259640 -2.480268 -137.844437 137.751434 -72.540855 -87.342438 137.872513
[Rope3_Seg01]
4 0.000000 0.000000 0.000000 165.131958 66.935577 -132.646088 0.000000
5 0.000000 0.000000 0.000000 167.883987 66.573639 -130.328323 0.000000
[Rope3_Seg02]
4 139.999924 -0.000119 0.000060 10.052181 14.159475 -3.911155 139.999924
5 139.999924 -0.000119 0.000060 9.924317 14.153445 -4.182539 139.999924
[Rope3_Seg03]
4 139.999924 -0.000119 0.000119 16.442232 20.333544 -5.345122 139.999924
5 139.999924 -0.000119 0.000119 16.010172 20.243567 -5.324920 139.999924
[Rope3_Seg04]
4 139.999924 0.000119 0.000000 8.662313 7.629375 -9.922732 139.999924
5 139.999924 0.000119 0.000000 7.402625 6.059636 -9.564213 139.999924
[Rope3_Seg05]
4 139.999924 -0.000238 0.000060 -6.051007 -20.106663 -5.330590 139.999924
5 139.999924 -0.000238 0.000060 -5.998818 -20.772551 -5.315439 139.999924
[Rope3_Seg06]
4 139.999893 -0.000119 -0.000060 -0.789487 -11.011153 -5.101407 139.999893
5 139.999893 -0.000119 -0.000060 -0.640127 -10.764787 -5.006691 139.999893
[Rope3_Seg07]
4 139.999771 0.000060 -0.000119 0.340879 -5.878633 -3.517606 139.999771
5 139.999771 0.000060 -0.000119 0.378172 -5.852940 -3.390587 139.999771
[Rope3_Seg08]
4 139.999985 -0.000060 0.000000 0.545648 -3.515871 -2.083493 139.999985
5 139.999985 -0.000060 0.000000 0.567711 -3.500969 -2.004907 139.999985
[Rope3_Seg09]
4 90.185997 -0.000179 -0.000060 89.793228 -1.359877 -0.847183 90.185997
5 90.185997 -0.000179 -0.000060 89.793228 -1.359877 -0.847183 90.185997
[R_rear_hand01]
4 103.366196 -6.073594 -10.757982 -161.551193 16.666374 -30.088671 104.101845
5 103.366196 -6.073594 -10.757982 -161.551193 16.666374 -30.088671 104.101845
[R_rear_hand02]
4 100.509819 12.039542 -7.992327 -34.280552 19.289745 28.875523 101.543350
5 100.509819 12.039542 -7.992327 -34.280552 19.289745 28.875523 101.543350
[R_rear_hand03]
4 101.539970 5.215704 5.435467 83.366440 -30.933914 7.284830 101.819031
5 101.539970 5.215704 5.435467 83.366440 -30.933914 7.284830 101.819031
[Rope4_Seg01]
4 0.000010 0.000038 -0.000114 -9.026760 66.384674 -173.468628 0.000121
5 0.000010 0.000038 -0.000114 -8.859619 66.922729 -173.273438 0.000121
[Rope4_Seg02]
4 139.999985 0.000060 0.000119 0.755843 -3.453462 10.808954 139.999985
5 139.999985 0.000060 0.000119 0.649306 -3.382679 10.685558 139.999985
[Rope4_Seg03]
4 139.999924 0.000000 -0.000238 0.256900 -4.945730 14.813498 139.999924
5 139.999924 0.000000 -0.000238 0.131034 -4.847742 14.548959 139.999924
[Rope4_Seg04]
4 139.999985 0.000000 0.000119 -0.727446 -6.421430 18.033339 139.999985
5 139.999985 0.000000 0.000119 -0.841866 -6.347676 17.692726 139.999985
[Rope4_Seg05]
4 139.999802 -0.000060 -0.000119 0.166642 4.807451 -1.258584 139.999802
5 139.999802 -0.000060 -0.000119 0.186765 4.713167 -1.035089 139.999802
[Rope4_Seg06]
4 139.999924 0.000000 0.000060 0.698735 8.237703 -7.977572 139.999924
5 139.999924 0.000000 0.000060 0.764740 8.103747 -7.595369 139.999924
[Rope4_Seg07]
4 139.999802 0.000000 0.000000 0.768488 4.415004 -2.839705 139.999802
5 139.999802 0.000000 0.000000 0.778110 4.334478 -2.636831 139.999802
[Rope4_Seg08]
4 139.999924 0.000000 0.000119 -0.862911 3.024085 -2.010132 139.999924
5 139.999924 0.000000 0.000119 -0.861711 2.972301 -1.872789 139.999924
[Rope4_Seg09]
4 90.185791 0.000060 0.000060 -135.617828 2.228885 0.850567 90.185791
5 90.185791 0.000060 0.000060 -135.617828 2.228885 0.850567 90.185791
[L_rear_hand01]
4 101.696655 -8.392275 -7.654577 -34.454281 -18.946800 151.655121 102.329041
5 101.696655 -8.392275 -7.654577 -34.454281 -18.946800 151.655121 102.329041
[L_rear_hand02]
4 102.726799 -1.568258 5.773216 83.407906 30.330435 172.796509 102.900848
5 102.726799 -1.568258 5.773216 83.407906 30.330435 172.796509 102.900848
[L_rear_hand03]
4 104.552910 9.721220 -10.420293 -161.379868 -16.473232 -150.512238 105.519653
5 104.552910 9.721220 -10.420293 -161.379868 -16.473232 -150.512238 105.519653
